<svg xmlns="http://www.w3.org/2000/svg" width="27.457" height="27.521" viewBox="0 0 27.457 27.521">
  <path id="Network_Icon" data-name="Network Icon" d="M7.869,5.4a1.312,1.312,0,0,0-.387-.967,1.569,1.569,0,0,0-.967-.451H5.1V1.271h5.543A2.86,2.86,0,0,0,12.574.434,2.623,2.623,0,0,0,13.348-1.5V-15.229a2.732,2.732,0,0,0-.773-1.966A2.57,2.57,0,0,0,10.641-18H-3.152a2.57,2.57,0,0,0-1.934.806,2.732,2.732,0,0,0-.773,1.966V-1.5A2.623,2.623,0,0,0-5.086.434a2.86,2.86,0,0,0,1.934.838H2.391V3.979H.973a1.569,1.569,0,0,0-.967.451A1.312,1.312,0,0,0-.381,5.4h-9.6V8.1h9.6a1.312,1.312,0,0,0,.387.967,1.569,1.569,0,0,0,.967.451H6.516a1.569,1.569,0,0,0,.967-.451A1.312,1.312,0,0,0,7.869,8.1h9.6V5.4ZM-1.412-8.268.2-9.879,2.391-7.687l4.9-4.9L8.9-10.652l-6.51,6.51Z" transform="translate(9.984 18)" fill="#9ec2ff"/>
</svg>
