<svg xmlns="http://www.w3.org/2000/svg" width="19.969" height="20.016" viewBox="0 0 19.969 20.016">
  <path id="Network_Pizda_Icon" data-name="Network Pizda Icon" d="M2.578-15,0-12.422-2.578-15l-1.406,1.406,2.578,2.578L-3.984-8.391l1.406,1.406L0-9.609,2.578-6.984,3.984-8.391,1.406-11.016l2.578-2.578Zm2.438-3a1.869,1.869,0,0,1,1.406.586,1.987,1.987,0,0,1,.563,1.43V-6a1.908,1.908,0,0,1-.562,1.406,2.08,2.08,0,0,1-1.406.609H.984v1.969H2.016a1.141,1.141,0,0,1,.7.328A.954.954,0,0,1,3-.984H9.984V.984H3a.954.954,0,0,1-.281.7,1.141,1.141,0,0,1-.7.328H-2.016a1.141,1.141,0,0,1-.7-.328A.954.954,0,0,1-3,.984H-9.984V-.984H-3a.954.954,0,0,1,.281-.7,1.141,1.141,0,0,1,.7-.328H-.984V-3.984H-5.016a2.08,2.08,0,0,1-1.406-.609A1.908,1.908,0,0,1-6.984-6v-9.984a1.987,1.987,0,0,1,.563-1.43A1.869,1.869,0,0,1-5.016-18Z" transform="translate(9.984 18)" fill="#d98880"/>
</svg>
