<svg id="diamond-yellow" xmlns="http://www.w3.org/2000/svg" width="44" height="35.735" viewBox="0 0 44 35.735">
  <path id="Path_9" data-name="Path 9" d="M2.757,56.982l5.5-6.872c2.165-2.749,2.1-2.749,4.123-2.749H31.621c2.027,0,1.959,0,4.123,2.749l5.5,6.872c3.711,4.123,3.642,4.123,0,8.247L26.123,80.348C24.783,81.722,24.1,83.1,22,83.1s-2.783-1.374-4.123-2.749L2.757,65.229C-.885,61.106-.954,61.106,2.757,56.982Z" transform="translate(0 -47.361)" fill="#bf802b"/>
  <path id="Path_10" data-name="Path 10" d="M33.086,63.854H11.095l9.449,18.9a3.54,3.54,0,0,0,1.546.344,3.289,3.289,0,0,0,1.512-.309Zm10.961-2.749v-.378c-.206-.928-1.1-1.924-2.715-3.745l-5.5-6.872c-2.165-2.749-2.1-2.749-4.123-2.749H22.056l11,16.493C33.189,63.717,44.047,61.106,44.047,61.106Zm-35.7-11-5.5,6.872C.992,59.044.1,60.075.1,61.106c.1.034,10.858,2.611,11,2.749l11-16.493H12.469C10.442,47.361,10.511,47.361,8.346,50.11Z" transform="translate(-0.09 -47.361)" fill="#cc9a55"/>
  <path id="Path_11" data-name="Path 11" d="M126.13,63.854l11-16.493,11,16.493Z" transform="translate(-115.126 -47.361)" fill="#d9be80"/>
  <path id="Path_12" data-name="Path 12" d="M136.092,48.289c-.825-.928-1.237-.928-2.646-.928h-9.621l11,16.493S136.092,48.289,136.092,48.289Zm-24.534.034,1.271,15.531,11-16.493H114.2C112.795,47.361,112.417,47.361,111.558,48.323Z" transform="translate(-101.825 -47.361)" fill="#d4b16e"/>
</svg>
